<?xml version="1.0" encoding="utf-8"?>
<!-- Generator: Adobe Illustrator 16.0.0, SVG Export Plug-In . SVG Version: 6.00 Build 0)  -->
<!DOCTYPE svg PUBLIC "-//W3C//DTD SVG 1.1//EN" "http://www.w3.org/Graphics/SVG/1.1/DTD/svg11.dtd">
<svg version="1.1" id="Layer_1" xmlns="http://www.w3.org/2000/svg" xmlns:xlink="http://www.w3.org/1999/xlink" x="0px" y="0px"
	 width="841.89px" height="595.28px" viewBox="0 0 841.89 595.28" enable-background="new 0 0 841.89 595.28" xml:space="preserve">
<linearGradient id="SVGID_1_" gradientUnits="userSpaceOnUse" x1="344.7803" y1="-98.8574" x2="497.1339" y2="432.4631">
	<stop  offset="0" style="stop-color:#FFFFFF"/>
	<stop  offset="0.2828" style="stop-color:#FCFCFC"/>
	<stop  offset="0.4584" style="stop-color:#F4F4F4"/>
	<stop  offset="0.6049" style="stop-color:#E5E5E5"/>
	<stop  offset="0.7352" style="stop-color:#D1D1D1"/>
	<stop  offset="0.8549" style="stop-color:#B6B6B6"/>
	<stop  offset="0.9653" style="stop-color:#969696"/>
	<stop  offset="1" style="stop-color:#8A8A8A"/>
</linearGradient>
<rect x="0.025" fill="url(#SVGID_1_)" width="841.864" height="333.605"/>
<linearGradient id="SVGID_2_" gradientUnits="userSpaceOnUse" x1="443.0361" y1="644.2529" x2="398.8802" y2="284.6323">
	<stop  offset="0" style="stop-color:#FFFFFF"/>
	<stop  offset="0.4358" style="stop-color:#FDFDFD"/>
	<stop  offset="0.5928" style="stop-color:#F6F6F6"/>
	<stop  offset="0.7046" style="stop-color:#EBEBEB"/>
	<stop  offset="0.7951" style="stop-color:#DADADA"/>
	<stop  offset="0.8726" style="stop-color:#C4C4C4"/>
	<stop  offset="0.94" style="stop-color:#A9A9A9"/>
	<stop  offset="1" style="stop-color:#8A8A8A"/>
</linearGradient>
<rect x="0.025" y="333.605" fill="url(#SVGID_2_)" width="841.864" height="261.675"/>
<linearGradient id="SVGID_3_" gradientUnits="userSpaceOnUse" x1="154.3921" y1="0" x2="154.3921" y2="333.606">
	<stop  offset="0" style="stop-color:#FF2815"/>
	<stop  offset="0.186" style="stop-color:#FC2815"/>
	<stop  offset="0.3191" style="stop-color:#F32614"/>
	<stop  offset="0.4357" style="stop-color:#E32413"/>
	<stop  offset="0.5429" style="stop-color:#CD2011"/>
	<stop  offset="0.6436" style="stop-color:#B01C0F"/>
	<stop  offset="0.7395" style="stop-color:#8D160C"/>
	<stop  offset="0.8316" style="stop-color:#631008"/>
	<stop  offset="0.9184" style="stop-color:#340804"/>
	<stop  offset="1" style="stop-color:#000000"/>
</linearGradient>
<rect x="142.253" fill="url(#SVGID_3_)" width="24.278" height="333.605"/>
<rect x="124.313" width="12.139" height="333.605"/>
<rect x="98.551" width="20.363" height="333.605"/>
<rect x="84.851" width="7.327" height="333.605"/>
<rect x="59.402" width="20.488" height="333.605"/>
<rect x="38.159" width="16.3" height="333.605"/>
<rect x="25.108" width="7.865" height="333.605"/>
<rect x="13.27" width="7.866" height="333.605"/>
<rect x="0.025" width="7.865" height="333.605"/>
<linearGradient id="SVGID_4_" gradientUnits="userSpaceOnUse" x1="1062.1836" y1="739.2637" x2="137.1758" y2="384.1865">
	<stop  offset="0" style="stop-color:#FF2815"/>
	<stop  offset="0.2185" style="stop-color:#FC2815"/>
	<stop  offset="0.3542" style="stop-color:#F42614"/>
	<stop  offset="0.4674" style="stop-color:#E52413"/>
	<stop  offset="0.5681" style="stop-color:#D12111"/>
	<stop  offset="0.6607" style="stop-color:#B61D0F"/>
	<stop  offset="0.7473" style="stop-color:#95170C"/>
	<stop  offset="0.8292" style="stop-color:#6E1109"/>
	<stop  offset="0.9074" style="stop-color:#410A05"/>
	<stop  offset="0.9801" style="stop-color:#0F0201"/>
	<stop  offset="1" style="stop-color:#000000"/>
</linearGradient>
<polygon fill="url(#SVGID_4_)" points="526.224,595.28 841.89,595.28 166.283,333.605 142.004,333.605 "/>
<polygon points="298.669,595.28 457.168,595.28 136.205,333.605 124.066,333.605 "/>
<polygon points="-0.223,525.336 0.025,595.28 226.408,595.28 118.666,333.605 98.303,333.605 "/>
<polygon points="0.089,492.512 0.025,506.408 91.93,333.605 84.604,333.605 "/>
<polygon points="0.061,444.713 0.025,483.305 79.642,333.605 59.153,333.605 "/>
<polygon points="0.025,404.838 0.025,435.455 54.211,333.605 37.91,333.605 "/>
<polygon points="0.025,380.24 0.025,395.09 32.725,333.605 24.86,333.605 "/>
<polygon points="0.025,358.04 0.025,372.792 20.887,333.605 13.022,333.605 "/>
<polygon points="0.025,334.774 0.025,348.19 7.643,333.605 0.025,333.605 "/>
</svg>
